<?xml version="1.0" standalone="no"?>
<!DOCTYPE svg PUBLIC "-//W3C//DTD SVG 20010904//EN"
 "http://www.w3.org/TR/2001/REC-SVG-20010904/DTD/svg10.dtd">
<svg version="1.0" xmlns="http://www.w3.org/2000/svg"
 width="545.000000pt" height="352.000000pt" viewBox="0 0 545.000000 352.000000"
 preserveAspectRatio="xMidYMid meet">
<metadata>
Created by potrace 1.15, written by Peter Selinger 2001-2017
</metadata>
<g transform="translate(0.000000,352.000000) scale(0.100000,-0.100000)"
fill="#000000" stroke="none">
<path d="M1033 3388 c-93 -66 -97 -161 -18 -418 87 -282 71 -350 -78 -341 -10
1 -39 21 -65 45 -87 81 -118 84 -242 26 -100 -47 -142 -50 -190 -15 -39 29
-85 32 -120 8 -39 -27 -48 -43 -61 -113 -10 -58 -9 -73 11 -149 33 -122 25
-195 -34 -303 -123 -226 -156 -511 -91 -783 62 -262 65 -294 40 -414 -21 -103
4 -148 97 -171 45 -12 50 -10 135 28 113 51 137 55 229 36 73 -15 78 -15 131
5 31 12 78 21 109 21 50 0 56 -2 75 -32 28 -46 21 -94 -47 -318 -30 -102 -58
-205 -60 -230 -7 -59 18 -108 71 -137 63 -35 115 -38 234 -15 166 34 285 38
467 16 149 -17 160 -17 240 -1 46 10 118 33 160 52 114 52 136 56 314 64 l165
7 145 72 c151 76 169 81 398 116 73 11 124 26 180 52 112 52 144 62 232 73 95
12 141 34 217 102 63 58 92 72 215 105 111 30 240 92 303 147 74 63 92 73 237
122 73 25 151 56 174 70 47 27 101 85 140 147 35 56 82 106 119 125 16 9 73
31 127 49 53 18 117 46 142 63 84 58 206 225 206 283 0 62 -156 201 -431 382
-37 25 -87 71 -113 103 -96 120 -113 132 -222 159 -117 29 -135 41 -244 165
-51 59 -144 108 -275 147 -136 40 -157 50 -252 115 -100 68 -152 83 -308 91
-137 7 -212 28 -296 81 -125 80 -153 89 -289 92 -156 5 -200 17 -327 93 -132
79 -190 92 -368 84 l-131 -7 -99 49 -99 49 -115 -1 c-64 0 -165 -4 -226 -8
-93 -7 -129 -5 -227 13 -158 28 -243 28 -285 -1z m365 -154 c56 -8 174 -14
261 -14 175 0 222 -10 317 -68 81 -50 135 -58 253 -39 55 10 116 17 135 17 42
0 163 -47 272 -106 128 -69 182 -85 331 -94 142 -8 166 -16 317 -104 61 -35
121 -51 246 -62 90 -8 118 -21 238 -113 133 -102 154 -111 288 -121 63 -6 129
-16 147 -24 59 -25 116 -75 172 -150 30 -41 67 -83 83 -95 16 -11 78 -36 138
-56 127 -42 160 -63 230 -142 28 -32 99 -92 158 -132 140 -97 192 -144 206
-187 10 -28 9 -39 -3 -57 -20 -31 -115 -80 -207 -107 -116 -34 -145 -53 -286
-190 -103 -100 -141 -131 -180 -144 -98 -35 -234 -109 -289 -157 -77 -68 -136
-95 -284 -133 -140 -37 -202 -64 -300 -136 -93 -67 -118 -78 -241 -105 -60
-13 -135 -37 -168 -54 -96 -48 -171 -69 -288 -79 -123 -11 -183 -31 -277 -90
-83 -53 -145 -70 -293 -82 -157 -12 -230 -29 -339 -76 l-90 -39 -245 -1 c-184
0 -269 -4 -340 -17 -52 -9 -134 -17 -181 -17 -79 0 -87 2 -110 26 -21 23 -24
35 -23 97 1 40 15 137 33 217 50 232 39 327 -42 375 -42 25 -141 25 -239 1
-73 -19 -79 -19 -137 -3 -79 22 -91 22 -186 -8 -97 -30 -121 -31 -135 -6 -5
11 -10 83 -10 163 0 102 -5 161 -16 203 -9 33 -23 83 -31 110 -7 28 -16 104
-20 170 -5 103 -3 132 16 205 11 47 35 112 52 145 108 206 104 196 103 270 -1
39 -4 102 -8 140 -6 58 -4 76 11 104 34 65 70 79 180 71 24 -2 68 5 99 16 l55
19 92 -33 c106 -37 154 -40 217 -11 64 29 98 65 115 123 25 82 19 150 -26 302
-61 205 -62 272 -7 293 25 9 99 5 236 -15z"/>
<path d="M1332 2627 c-42 -51 -43 -53 -40 -117 l3 -65 53 -3 52 -3 0 -350 c0
-325 -1 -349 -17 -350 -10 0 -37 -23 -60 -52 l-43 -51 0 -93 0 -93 353 0 353
0 32 33 32 33 0 112 0 112 -51 0 c-49 0 -50 1 -47 27 3 24 26 40 182 130 98
57 184 103 191 103 28 0 27 -23 -1 -43 -16 -11 -56 -48 -90 -82 -81 -81 -130
-180 -151 -304 -14 -85 -14 -101 0 -173 47 -240 214 -393 524 -482 177 -51
253 -59 491 -53 273 7 398 35 607 138 216 105 387 304 397 461 l3 43 -127 3
-127 3 -20 -39 c-123 -242 -773 -358 -1092 -197 -117 60 -209 181 -209 277 0
71 59 172 89 153 17 -10 13 -30 -9 -50 -17 -16 -20 -31 -20 -112 l0 -93 333 0
333 0 42 43 42 43 0 96 0 97 -28 3 c-21 2 -55 33 -136 121 -60 65 -107 119
-105 122 2 2 50 8 106 15 268 29 489 -68 628 -278 l28 -42 90 0 91 0 43 42 43
42 0 243 0 243 -95 0 c-89 0 -98 -2 -146 -32 l-51 -31 -137 46 c-260 88 -472
99 -720 37 l-124 -32 -20 21 c-12 11 -19 22 -16 24 2 2 62 38 132 80 l128 77
85 0 84 0 45 41 45 42 0 83 0 84 -338 0 -338 0 -37 -38 c-34 -34 -37 -43 -37
-92 l0 -55 -293 -167 c-161 -92 -300 -170 -310 -174 -16 -6 -17 5 -17 128 l0
134 50 49 50 49 0 83 0 83 -332 -1 -333 0 -43 -52z"/>
</g>
</svg>
